<?xml version="1.0" encoding="UTF-8" standalone="no"?>
<svg
   xmlns:dc="http://purl.org/dc/elements/1.1/"
   xmlns:cc="http://creativecommons.org/ns#"
   xmlns:rdf="http://www.w3.org/1999/02/22-rdf-syntax-ns#"
   xmlns:svg="http://www.w3.org/2000/svg"
   xmlns="http://www.w3.org/2000/svg"
   xmlns:sodipodi="http://sodipodi.sourceforge.net/DTD/sodipodi-0.dtd"
   xmlns:inkscape="http://www.inkscape.org/namespaces/inkscape"
   version="1.0"
   viewBox="0 0 434 720"
   preserveAspectRatio="xMidYMid meet"
   x="0px"
   y="0px"
   id="svg2"
   inkscape:version="0.91 r13725"
   sodipodi:docname="curved_arrow.svg">
  <defs
     id="defs18" />
  <sodipodi:namedview
     pagecolor="#ffffff"
     bordercolor="#666666"
     borderopacity="1"
     objecttolerance="10"
     gridtolerance="10"
     guidetolerance="10"
     inkscape:pageopacity="0"
     inkscape:pageshadow="2"
     inkscape:window-width="1550"
     inkscape:window-height="808"
     id="namedview16"
     showgrid="false"
     inkscape:zoom="0.32777778"
     inkscape:cx="-188.76271"
     inkscape:cy="360"
     inkscape:window-x="304"
     inkscape:window-y="61"
     inkscape:window-maximized="0"
     inkscape:current-layer="svg2" />
  <metadata
     id="metadata4">
Created by potrace 1.15, written by Peter Selinger 2001-2017
<rdf:RDF>
  <cc:Work
     rdf:about="">
    <dc:format>image/svg+xml</dc:format>
    <dc:type
       rdf:resource="http://purl.org/dc/dcmitype/StillImage" />
    <dc:title></dc:title>
  </cc:Work>
</rdf:RDF>
</metadata>
  <g
     transform="translate(0.000000,576.000000) scale(0.100000,-0.100000)"
     fill="#000000"
     stroke="none"
     id="g6">
    <path
       d="M2360 5724 c-25 -15 -52 -32 -60 -39 -8 -8 -26 -18 -40 -23 -14 -6 -56 -36 -94 -69 -37 -32 -78 -63 -90 -70 -65 -36 -1016 -989 -1016 -1018 0 -4 -40 -54 -90 -111 -49 -56 -90 -106 -90 -109 0 -4 -30 -44 -67 -89 -38 -44 -72 -88 -78 -97 -34 -54 -64 -96 -79 -108 -9 -7 -16 -18 -16 -23 0 -6 -17 -31 -39 -57 -21 -25 -49 -64 -61 -86 -12 -22 -35 -56 -51 -76 -16 -20 -29 -40 -29 -43 0 -3 -16 -27 -36 -53 -20 -26 -40 -58 -45 -71 -5 -13 -20 -38 -34 -56 -14 -18 -25 -36 -25 -40 0 -4 -13 -27 -30 -51 -16 -24 -30 -50 -30 -58 0 -8 -9 -25 -19 -38 -10 -14 -25 -43 -32 -67 -7 -23 -18 -47 -26 -53 -7 -6 -13 -16 -13 -21 0 -5 -9 -28 -19 -51 -11 -24 -23 -56 -26 -72 -4 -17 -14 -45 -22 -63 -8 -18 -17 -50 -20 -70 -3 -20 -9 -42 -14 -47 -4 -6 -13 -51 -19 -100 -7 -50 -17 -99 -23 -110 -13 -25 -12 -436 2 -462 5 -10 14 -62 20 -116 6 -53 15 -105 20 -115 5 -9 33 -66 62 -127 29 -60 65 -126 81 -146 15 -20 28 -41 28 -47 0 -6 21 -37 48 -69 26 -32 52 -67 58 -77 6 -11 19 -24 30 -30 10 -6 55 -42 99 -80 44 -37 87 -71 95 -74 8 -3 29 -15 45 -27 17 -12 44 -28 60 -36 17 -9 39 -20 50 -27 53 -29 174 -81 205 -87 19 -4 40 -11 45 -15 6 -5 30 -13 55 -19 25 -7 54 -16 65 -21 11 -4 56 -14 100 -20 44 -6 89 -16 100 -20 11 -5 43 -11 70 -14 28 -3 75 -9 105 -12 30 -4 60 -10 65 -14 11 -9 270 -30 369 -30 36 0 68 -5 71 -10 3 -6 30 -10 58 -10 71 0 258 -20 282 -31 11 -4 65 -13 119 -19 54 -7 106 -15 115 -20 9 -5 63 -14 121 -20 58 -7 114 -16 125 -21 11 -5 76 -13 144 -19 68 -6 129 -14 135 -19 6 -5 40 -9 75 -9 76 0 125 22 129 59 5 43 -17 59 -98 70 -41 6 -82 14 -91 19 -9 5 -54 14 -100 20 -46 6 -93 15 -104 20 -11 5 -58 14 -105 20 -47 7 -89 15 -95 19 -5 5 -64 14 -130 21 -66 7 -125 17 -132 22 -6 5 -67 14 -135 19 -67 6 -131 15 -140 20 -9 5 -104 14 -210 20 -106 6 -202 14 -213 19 -20 9 -79 15 -250 26 -49 3 -99 10 -110 15 -11 5 -49 13 -84 19 -36 5 -69 14 -75 20 -5 5 -25 10 -43 10 -37 0 -133 19 -148 29 -5 4 -30 13 -55 20 -41 11 -84 30 -220 93 -25 12 -68 39 -97 60 -29 21 -56 38 -61 38 -13 0 -202 187 -202 201 0 6 -8 23 -19 37 -29 41 -70 113 -87 152 -47 110 -54 130 -54 158 0 16 -4 32 -9 37 -27 27 -28 597 -2 629 5 6 14 46 21 89 6 43 18 90 26 105 7 15 14 39 14 54 0 14 15 55 33 90 18 35 39 83 47 108 7 25 20 53 28 62 8 9 33 54 57 100 64 126 78 149 113 201 18 27 32 52 32 57 0 4 18 31 40 59 22 28 40 54 40 58 0 4 18 31 40 58 22 28 40 53 40 58 0 4 27 40 60 81 33 41 60 77 60 81 0 4 28 40 62 82 35 41 68 82 73 92 6 9 66 79 135 154 69 76 128 146 132 155 10 26 536 552 552 552 7 0 16 9 19 20 3 11 13 23 24 26 25 9 93 75 93 91 0 7 6 13 13 13 6 0 48 35 92 79 135 133 233 221 247 221 7 0 40 23 73 50 33 28 65 50 72 50 26 0 73 52 73 80 0 40 -17 80 -34 80 -7 0 -19 7 -26 15 -18 21 -48 18 -100 -11z"
       id="path8" />
    <path
       d="M2878 1746 c-26 -13 -61 -73 -48 -81 6 -4 10 -26 10 -51 0 -39 5 -50 38 -80 20 -20 51 -42 67 -49 17 -7 39 -23 50 -35 23 -25 102 -80 115 -80 5 0 40 -15 77 -34 38 -18 84 -39 103 -46 19 -7 62 -25 95 -40 33 -16 76 -32 95 -35 19 -4 54 -16 77 -26 23 -11 46 -19 51 -19 5 0 15 -6 21 -14 6 -7 28 -16 49 -20 20 -3 49 -12 63 -19 14 -8 43 -17 64 -21 21 -4 54 -16 74 -27 20 -10 41 -19 47 -19 6 0 17 -7 24 -15 7 -8 23 -15 35 -15 12 0 28 -7 35 -15 11 -14 7 -22 -25 -55 -22 -22 -43 -40 -47 -40 -5 0 -31 -16 -58 -35 -27 -19 -53 -35 -57 -35 -5 0 -32 -18 -61 -40 -29 -22 -55 -40 -57 -40 -3 0 -31 -20 -64 -45 -32 -25 -62 -45 -65 -45 -3 0 -28 -16 -55 -35 -26 -19 -52 -35 -55 -35 -4 0 -27 -13 -51 -30 -24 -16 -48 -30 -52 -30 -5 0 -15 -6 -21 -13 -14 -13 -108 -67 -162 -93 -19 -9 -51 -28 -70 -43 -19 -15 -51 -34 -70 -44 -86 -42 -129 -71 -177 -120 -68 -66 -70 -95 -13 -160 23 -25 49 -49 59 -52 26 -8 101 26 101 46 0 14 70 79 85 79 4 0 25 12 48 28 23 15 58 35 77 45 45 23 75 40 91 54 8 6 25 14 39 18 14 4 43 23 66 41 23 19 46 34 53 34 6 0 28 10 49 23 20 12 46 28 57 35 11 7 29 16 40 21 12 5 27 16 34 25 7 9 19 16 26 16 7 0 36 18 63 40 28 21 62 42 75 45 14 4 35 18 48 31 12 13 26 24 31 24 5 0 30 16 55 35 25 19 52 35 59 35 7 0 34 17 61 39 27 21 60 42 74 46 33 10 159 135 159 158 0 57 -114 195 -190 229 -97 44 -126 56 -150 63 -14 4 -43 15 -65 25 -22 10 -57 21 -78 25 -20 4 -54 16 -74 26 -21 11 -45 19 -54 19 -10 0 -30 6 -46 14 -44 21 -95 43 -133 56 -39 14 -97 39 -120 52 -8 4 -22 11 -30 14 -8 4 -52 24 -98 46 -95 46 -132 86 -132 140 0 39 -23 65 -80 90 -44 20 -154 28 -182 14z"
       id="path10" />
  </g>
</svg>
